<svg width="25" height="25" viewBox="0 0 25 25" fill="none" xmlns="http://www.w3.org/2000/svg">
<path opacity="0.2" d="M21.5002 12.2725C21.5002 14.0525 20.9724 15.7926 19.9835 17.2726C18.9945 18.7526 17.5889 19.9062 15.9444 20.5874C14.2999 21.2686 12.4903 21.4468 10.7444 21.0995C8.99861 20.7523 7.39496 19.8951 6.13629 18.6364C4.87761 17.3778 4.02045 15.7741 3.67318 14.0283C3.32591 12.2824 3.50414 10.4728 4.18533 8.82831C4.86652 7.18378 6.02007 5.77817 7.50012 4.78923C8.98016 3.8003 10.7202 3.27246 12.5002 3.27246C14.8872 3.27246 17.1764 4.22067 18.8642 5.9085C20.552 7.59633 21.5002 9.88551 21.5002 12.2725Z" fill="white"/>
<path d="M12.5002 2.52246C10.5719 2.52246 8.68682 3.09429 7.08344 4.16563C5.48006 5.23698 4.23038 6.75972 3.49242 8.5413C2.75447 10.3229 2.56139 12.2833 2.93759 14.1746C3.3138 16.0659 4.2424 17.8032 5.60596 19.1668C6.96952 20.5303 8.7068 21.4589 10.5981 21.8351C12.4894 22.2113 14.4498 22.0182 16.2314 21.2803C18.013 20.5423 19.5357 19.2927 20.6071 17.6893C21.6784 16.0859 22.2502 14.2008 22.2502 12.2725C22.2475 9.68744 21.2194 7.20907 19.3915 5.38118C17.5636 3.5533 15.0853 2.52519 12.5002 2.52246ZM13.2502 20.4878V14.5225H15.5002C15.6992 14.5225 15.8899 14.4434 16.0306 14.3028C16.1712 14.1621 16.2502 13.9714 16.2502 13.7725C16.2502 13.5735 16.1712 13.3828 16.0306 13.2421C15.8899 13.1015 15.6992 13.0225 15.5002 13.0225H13.2502V10.7725C13.2502 10.3746 13.4083 9.99311 13.6896 9.7118C13.9709 9.4305 14.3524 9.27246 14.7502 9.27246H16.2502C16.4492 9.27246 16.6399 9.19344 16.7806 9.05279C16.9212 8.91214 17.0002 8.72137 17.0002 8.52246C17.0002 8.32355 16.9212 8.13278 16.7806 7.99213C16.6399 7.85148 16.4492 7.77246 16.2502 7.77246H14.7502C13.9546 7.77246 13.1915 8.08853 12.6289 8.65114C12.0663 9.21375 11.7502 9.97681 11.7502 10.7725V13.0225H9.50025C9.30134 13.0225 9.11057 13.1015 8.96992 13.2421C8.82927 13.3828 8.75025 13.5735 8.75025 13.7725C8.75025 13.9714 8.82927 14.1621 8.96992 14.3028C9.11057 14.4434 9.30134 14.5225 9.50025 14.5225H11.7502V20.4878C9.63599 20.2948 7.67753 19.2941 6.28222 17.694C4.88692 16.0938 4.16219 14.0174 4.25879 11.8965C4.3554 9.7757 5.26589 7.77373 6.80088 6.30706C8.33588 4.84039 10.3772 4.02194 12.5002 4.02194C14.6233 4.02194 16.6646 4.84039 18.1996 6.30706C19.7346 7.77373 20.6451 9.7757 20.7417 11.8965C20.8383 14.0174 20.1136 16.0938 18.7183 17.694C17.323 19.2941 15.3645 20.2948 13.2502 20.4878Z" fill="white"/>
</svg>
